<?xml version="1.0" ?><svg id="Layer_1" style="enable-background:new 0 0 60 60;" version="1.1" viewBox="0 0 60 60" xml:space="preserve" xmlns="http://www.w3.org/2000/svg" xmlns:xlink="http://www.w3.org/1999/xlink"><path d="M48.19,12.33l-2.03,0.33l0.57-6.57c0.04-0.42-0.19-0.82-0.58-0.99c-0.38-0.18-0.83-0.1-1.13,0.2  c-0.06,0.06-6.06,6.02-15.88,8.89c-2.66,0.78-4.82,2.61-5.92,5.04c-2.25,4.95-0.05,9.58,5.88,12.36c0.45,0.21,0.78,0.62,0.89,1.08  v6.45h-1.43c-4.86,0-8.82,3.95-8.82,8.82V54c0,0.55,0.45,1,1,1h26.61c0.55,0,1-0.45,1-1v-6.06c0-4.86-3.95-8.82-8.82-8.82H38.1  v-0.07c4.2-0.14,7.57-3.59,7.57-7.82v-1.59c1.48-0.59,2.53-2.03,2.53-3.71c0-0.55-0.45-1-1-1h-1.53V18.4l3.47-4.48  c0.25-0.32,0.28-0.77,0.07-1.12C49,12.45,48.59,12.27,48.19,12.33z M36.1,38.89v4.06c0,1.13-0.92,2.05-2.05,2.05  c-1.13,0-2.05-0.92-2.05-2.05v-6.37C33.08,37.74,34.5,38.56,36.1,38.89z M39.53,41.12c3.76,0,6.82,3.06,6.82,6.82V53H21.74v-5.06  c0-3.76,3.06-6.82,6.82-6.82h1.43v1.83c0,2.23,1.82,4.05,4.05,4.05c2.24,0,4.05-1.82,4.05-4.05v-1.83H39.53z M44.2,27.93  c-0.74,0-1.38-0.4-1.73-1h3.46C45.59,27.53,44.94,27.93,44.2,27.93z M41.21,24.94h-1.11h-6h-1.29l0.17-0.73  c0.24-1,1.11-1.72,2.11-1.76c4.06-0.16,6.92-1.42,8.57-2.42v4.91H41.21z M38.83,26.94c-0.35,0.6-0.99,1-1.73,1  c-0.74,0-1.38-0.4-1.73-1H38.83z M43.93,17.38c-0.39,0.34-3.39,2.84-8.92,3.06c-1.9,0.08-3.54,1.43-3.98,3.29l-0.47,1.96  c-0.07,0.3,0,0.61,0.19,0.85c0.19,0.24,0.48,0.38,0.78,0.38h1.7c0.45,1.72,2,3,3.86,3c1.56,0,2.89-0.9,3.55-2.2  c0.58,1.15,1.69,1.97,3.02,2.15v1.35c0,3.21-2.62,5.83-5.83,5.83H37.7c-2.79,0-5.2-1.98-5.72-4.72c-0.01-0.06-0.04-0.11-0.05-0.16  c-0.01-0.02-0.01-0.03-0.02-0.05c-0.27-1.02-0.97-1.9-1.95-2.36c-2.87-1.35-7.32-4.4-4.91-9.73c0.86-1.89,2.55-3.33,4.66-3.94  c7.09-2.07,12.22-5.62,14.82-7.72l-0.46,5.37c-0.03,0.31,0.09,0.61,0.32,0.82s0.54,0.3,0.84,0.25l0.79-0.13L43.93,17.38z"/><path d="M20.59,17.9c0.21,0,0.41-0.06,0.59-0.19c0.31-0.22,0.46-0.6,0.4-0.98l-0.56-3.28l2.39-2.33c0.27-0.27,0.37-0.66,0.25-1.02  c-0.12-0.36-0.43-0.63-0.81-0.68l-3.3-0.48l-1.48-2.99c-0.34-0.68-1.46-0.68-1.79,0L14.8,8.94l-3.3,0.48  c-0.38,0.05-0.69,0.32-0.81,0.68c-0.12,0.36-0.02,0.76,0.25,1.02l2.39,2.33l-0.56,3.28c-0.06,0.38,0.09,0.75,0.4,0.98  c0.31,0.22,0.72,0.25,1.05,0.08l2.95-1.55l2.95,1.55C20.27,17.87,20.43,17.9,20.59,17.9z M17.64,14.22  c-0.15-0.08-0.3-0.11-0.46-0.11s-0.32,0.04-0.47,0.11l-1.62,0.85l0.31-1.81c0.06-0.32-0.05-0.66-0.29-0.88l-1.31-1.28l1.81-0.26  c0.33-0.05,0.61-0.25,0.75-0.55l0.81-1.64l0.81,1.64c0.15,0.29,0.43,0.5,0.75,0.55l1.81,0.26l-1.31,1.28  c-0.24,0.23-0.34,0.56-0.29,0.88l0.31,1.81L17.64,14.22z"/></svg>