<svg width="177" height="169" viewBox="0 0 177 169" fill="none" xmlns="http://www.w3.org/2000/svg">
<path d="M88.5 0L108.369 58.3881H172.669L120.65 94.4739L140.519 152.862L88.5 116.776L36.481 152.862L56.3505 94.4739L4.3315 58.3881H68.6305L88.5 0Z" fill="#DDB03B" fill-opacity="0.58"/>
<g clip-path="url(#clip0_10_6)">
<path d="M109.398 65.7945C109.113 64.6898 108.468 63.7072 107.561 62.9966C106.654 62.286 105.535 61.8866 104.375 61.8594C103.389 61.8755 102.428 62.1655 101.604 62.6958C100.779 63.2262 100.124 63.9752 99.7147 64.856C99.2458 64.2203 98.6314 63.7015 97.9211 63.3415C97.2108 62.9815 96.4243 62.7902 95.625 62.7832C94.653 62.798 93.7047 63.0794 92.887 63.5957C92.0694 64.1121 91.415 64.8427 90.998 65.7051C90.7232 64.607 90.0815 63.6312 89.1754 62.9335C88.2694 62.2359 87.1513 61.8568 86 61.8568C84.8487 61.8568 83.7306 62.2359 82.8246 62.9335C81.9185 63.6312 81.2768 64.607 81.002 65.7051C80.5849 64.8427 79.9306 64.1121 79.113 63.5957C78.2953 63.0794 77.347 62.798 76.375 62.7832C75.5757 62.7902 74.7892 62.9815 74.0789 63.3415C73.3685 63.7015 72.7542 64.2203 72.2852 64.856C71.876 63.9752 71.2211 63.2262 70.3963 62.6958C69.5716 62.1655 68.6107 61.8755 67.625 61.8594C66.465 61.8866 65.3461 62.286 64.439 62.9966C63.5319 63.7072 62.8866 64.6898 62.6016 65.7945C61.4921 66.1824 60.5351 66.9034 59.8662 67.8555C59.1973 68.8075 58.8505 69.9421 58.875 71.0985C58.8249 72.5167 59.3494 73.8965 60.3336 74.9354C61.3177 75.9744 62.6812 76.5876 64.125 76.6407C64.1194 77.4085 64.2715 78.1695 64.5722 78.8782C64.8729 79.587 65.316 80.2289 65.875 80.7657L65.8986 80.7278C65.997 79.56 66.4672 78.4523 67.2426 77.5617C68.018 76.6712 69.0593 76.043 70.2187 75.7664C71.378 75.4897 72.5966 75.5786 73.7017 76.0205C74.8067 76.4623 75.742 77.2346 76.375 78.2279C76.8853 77.4265 77.5947 76.7657 78.4366 76.3076C79.2784 75.8494 80.2251 75.6091 81.1875 75.6091C82.1499 75.6091 83.0966 75.8494 83.9384 76.3076C84.7803 76.7657 85.4897 77.4265 86 78.2279C86.5103 77.4265 87.2197 76.7657 88.0616 76.3076C88.9034 75.8494 89.8501 75.6091 90.8125 75.6091C91.7749 75.6091 92.7216 75.8494 93.5634 76.3076C94.4053 76.7657 95.1147 77.4265 95.625 78.2279C96.258 77.2346 97.1933 76.4623 98.2983 76.0205C99.4033 75.5786 100.622 75.4897 101.781 75.7664C102.941 76.043 103.982 76.6712 104.757 77.5617C105.533 78.4523 106.003 79.56 106.101 80.7278L106.125 80.7657C106.684 80.2289 107.127 79.587 107.428 78.8782C107.729 78.1695 107.881 77.4085 107.875 76.6407C109.319 76.5876 110.683 75.9741 111.667 74.9348C112.651 73.8955 113.176 72.5153 113.125 71.0968C113.149 69.9407 112.802 68.8064 112.133 67.8548C111.464 66.9031 110.508 66.1823 109.398 65.7945Z" fill="#FCCB7E"/>
<path d="M113.125 71.0977C113.175 72.5157 112.65 73.8953 111.666 74.9342C110.682 75.9731 109.319 76.5867 107.875 76.6406C107.88 77.4083 107.727 78.169 107.427 78.8777C107.126 79.5863 106.683 80.2283 106.125 80.7656C106.118 80.753 106.109 80.7414 106.099 80.7313C105.991 79.3642 105.367 78.0862 104.349 77.1477C104.366 76.9792 104.375 76.81 104.375 76.6406C105.819 76.5867 107.182 75.9731 108.166 74.9342C109.15 73.8953 109.675 72.5157 109.625 71.0977C109.65 69.9411 109.304 68.8062 108.635 67.8543C107.965 66.9023 107.008 66.1819 105.898 65.7953C105.677 64.986 105.268 64.2381 104.703 63.6103C104.139 62.9824 103.433 62.4919 102.643 62.1773C103.195 61.9664 103.782 61.8586 104.375 61.8594C105.535 61.8871 106.654 62.2868 107.561 62.9975C108.467 63.7082 109.113 64.6908 109.398 65.7953C110.508 66.1819 111.465 66.9023 112.135 67.8543C112.804 68.8062 113.15 69.9411 113.125 71.0977Z" fill="#FDD598"/>
<path d="M76.375 78.2279C75.742 77.2346 74.8067 76.4623 73.7017 76.0204C72.5966 75.5786 71.378 75.4897 70.2187 75.7664C69.0593 76.043 68.0181 76.6712 67.2426 77.5617C66.4672 78.4523 65.997 79.56 65.8986 80.7278C65.8864 80.8825 65.875 81.0372 65.875 81.1953C65.875 81.2426 69.375 115.141 69.375 115.141H78.125L76.6086 77.9091C76.5299 78.0156 76.4459 78.117 76.375 78.2279Z" fill="#C73B40"/>
<path d="M81.1875 75.6094C80.2936 75.6105 79.4128 75.8195 78.6169 76.2192C77.8211 76.6189 77.1329 77.198 76.6086 77.9091L78.125 115.141H86V78.2279C85.4895 77.4266 84.7801 76.766 83.9383 76.3079C83.0964 75.8499 82.1499 75.6095 81.1875 75.6094Z" fill="#FFFF97"/>
<path d="M106.101 80.7278C106.003 79.56 105.533 78.4523 104.757 77.5617C103.982 76.6712 102.941 76.043 101.781 75.7664C100.622 75.4897 99.4034 75.5786 98.2983 76.0204C97.1933 76.4623 96.258 77.2346 95.625 78.2279C95.5541 78.117 95.4701 78.0148 95.3914 77.9091L93.875 115.141H102.625L106.125 81.1953C106.125 81.0372 106.114 80.8825 106.101 80.7278Z" fill="#FFFF97"/>
<path d="M106.101 80.7278C106.037 79.9262 105.797 79.1477 105.397 78.4463C104.996 77.7449 104.446 77.1373 103.783 76.6655C103.12 76.1937 102.36 75.869 101.557 75.7138C100.754 75.5586 99.9258 75.5766 99.1302 75.7666C100.294 76.0396 101.34 76.6659 102.121 77.5566C102.901 78.4473 103.375 79.557 103.476 80.7278C103.489 80.8825 103.5 81.0372 103.5 81.1953L100 115.141H102.625L106.125 81.1953C106.125 81.0372 106.114 80.8825 106.101 80.7278Z" fill="#FFFFAC"/>
<path d="M90.8125 75.6094C89.8501 75.6095 88.9036 75.8499 88.0618 76.3079C87.2199 76.766 86.5105 77.4266 86 78.2279V115.141H93.875L95.3914 77.9091C94.8672 77.198 94.179 76.6189 93.3831 76.2192C92.5873 75.8195 91.7064 75.6105 90.8125 75.6094Z" fill="#C73B40"/>
<path d="M110.102 65.1336C109.695 63.9505 108.927 62.9191 107.902 62.1795C106.878 61.44 105.646 61.0282 104.375 61C103.436 61.0057 102.512 61.2288 101.678 61.6512C100.843 62.0737 100.122 62.6835 99.5728 63.4312C98.4934 62.4641 97.0858 61.9267 95.6248 61.9238C94.7772 61.9287 93.9405 62.1115 93.1708 62.4602C92.4011 62.8088 91.7163 63.3151 91.1623 63.9451C90.6437 63.0507 89.8933 62.3072 88.9873 61.79C88.0813 61.2727 87.0521 61.0003 86.0042 61.0003C84.9562 61.0003 83.927 61.2727 83.021 61.79C82.115 62.3072 81.3646 63.0507 80.846 63.9451C80.291 63.314 79.6048 62.807 78.8335 62.4584C78.0622 62.1097 77.2238 61.9274 76.3748 61.9238C74.9137 61.9267 73.5062 62.4641 72.4268 63.4312C71.8775 62.6835 71.1564 62.0737 70.322 61.6512C69.4876 61.2288 68.5635 61.0057 67.6248 61C66.3536 61.0282 65.122 61.44 64.0974 62.1795C63.0728 62.9191 62.3049 63.9505 61.8979 65.1336C60.7196 65.6368 59.7201 66.4724 59.0261 67.5344C58.3321 68.5963 57.9749 69.8368 57.9998 71.0985C57.9642 72.6038 58.4792 74.0717 59.4515 75.2358C60.4238 76.4 61.7888 77.1832 63.2988 77.4433C63.4672 78.8028 64.0637 80.0767 65.005 81.087C65.005 81.124 64.9998 81.1592 64.9998 81.1953C64.9998 81.2555 64.9998 81.2855 68.5042 115.227C68.5258 115.439 68.6269 115.635 68.7878 115.778C68.9487 115.921 69.1579 116 69.3748 116H102.625C102.842 116.001 103.053 115.922 103.215 115.779C103.376 115.636 103.478 115.439 103.5 115.227L107 81.2813C107 81.252 107.004 81.2228 107.004 81.1953C107.004 81.1678 107 81.124 106.999 81.087C107.94 80.0767 108.537 78.8028 108.705 77.4433C110.214 77.1823 111.578 76.3987 112.55 75.2346C113.521 74.0706 114.036 72.6032 114 71.0985C114.025 69.8368 113.667 68.5963 112.973 67.5344C112.279 66.4724 111.28 65.6368 110.102 65.1336ZM70.1623 114.281C69.6452 109.258 66.7813 81.5279 66.7498 81.1953C66.7498 81.0613 66.7603 80.9289 66.7699 80.7991C66.8764 79.6209 67.4267 78.5241 68.313 77.7232C69.1993 76.9224 70.3579 76.475 71.5623 76.4688C72.3768 76.4675 73.1782 76.6704 73.8907 77.0583C74.6031 77.4461 75.203 78.006 75.6337 78.6851C75.6726 78.7452 75.7187 78.8006 75.771 78.8501L77.2139 114.281H70.1623ZM78.7277 77.1391C78.8292 77.0789 78.9333 77.0256 79.0392 76.9732C79.1092 76.938 79.1809 76.9045 79.2535 76.8727C79.341 76.834 79.4285 76.7979 79.5222 76.7652C79.6158 76.7326 79.7164 76.6991 79.8153 76.6707C79.8923 76.6475 79.9702 76.6243 80.0489 76.6054C80.1697 76.577 80.293 76.5555 80.4173 76.5358C80.4803 76.5255 80.5424 76.5126 80.6072 76.5048C80.7996 76.4814 80.9933 76.4694 81.1873 76.4688C81.9623 76.4686 82.7257 76.6536 83.4117 77.0078C84.0977 77.362 84.6856 77.8749 85.1248 78.502V114.281H78.9657L77.4948 78.1875C77.8152 77.8066 78.1939 77.477 78.6174 77.2104C78.655 77.1863 78.6918 77.1614 78.7303 77.1391H78.7277ZM93.0339 114.281H86.8748V78.502C86.9159 78.4436 86.9579 78.386 87.0017 78.3302C87.0568 78.2588 87.1128 78.1875 87.1714 78.1196C87.2414 78.0388 87.3158 77.9632 87.391 77.8884C87.4663 77.8137 87.5179 77.7595 87.5853 77.6994C87.6527 77.6392 87.7454 77.5653 87.8277 77.5009C87.9099 77.4364 87.9694 77.3874 88.0438 77.3359C88.1181 77.2843 88.2188 77.2233 88.3063 77.1691C88.3938 77.115 88.4594 77.0746 88.539 77.0325C88.6335 76.9827 88.7315 76.9405 88.8295 76.8967C88.9092 76.8615 88.9879 76.8228 89.0693 76.791C89.1752 76.7506 89.2845 76.7197 89.393 76.687C89.4718 76.663 89.5479 76.6355 89.6275 76.6148C89.7518 76.5848 89.8795 76.565 90.0073 76.5435C90.0747 76.5323 90.1412 76.5152 90.2103 76.5066C90.6013 76.4579 90.997 76.4579 91.388 76.5066C91.4519 76.5143 91.5149 76.5272 91.5779 76.5375C91.7022 76.5573 91.8255 76.5788 91.9463 76.6071C92.025 76.626 92.1029 76.6501 92.1799 76.6724C92.2788 76.7008 92.3768 76.7317 92.473 76.767C92.5693 76.8022 92.6533 76.8357 92.7417 76.8744C92.8143 76.9062 92.886 76.9397 92.956 76.9749C93.0619 77.0273 93.166 77.0806 93.2675 77.1408C93.306 77.1631 93.3428 77.188 93.3804 77.2121C93.8044 77.4781 94.1837 77.8071 94.5048 78.1875L93.0339 114.281ZM101.837 114.281H94.7857L96.2285 78.8501C96.2808 78.8006 96.3269 78.7452 96.3659 78.6851C96.7965 78.006 97.3965 77.4461 98.1089 77.0583C98.8213 76.6704 99.6227 76.4675 100.437 76.4688C101.641 76.4752 102.799 76.9224 103.685 77.7229C104.572 78.5234 105.122 79.6197 105.229 80.7974C105.238 80.916 105.248 81.0338 105.25 81.1549L101.837 114.281ZM107.875 75.7813C107.643 75.7813 107.42 75.8718 107.256 76.033C107.092 76.1941 107 76.4127 107 76.6406C107.001 77.3796 106.834 78.1096 106.513 78.7779C106.501 78.747 106.482 78.7195 106.469 78.692C106.367 78.4603 106.252 78.2344 106.125 78.0156C106.1 77.9744 106.078 77.9297 106.053 77.8902C105.908 77.656 105.748 77.4309 105.574 77.2164C105.536 77.1691 105.497 77.1245 105.457 77.0789C105.277 76.8635 105.084 76.6597 104.877 76.4688L104.872 76.4636C104.66 76.2752 104.437 76.1004 104.202 75.9402C104.153 75.9059 104.104 75.8715 104.053 75.838C103.821 75.6841 103.579 75.5452 103.328 75.422C103.287 75.4023 103.245 75.3859 103.204 75.367C102.969 75.2581 102.728 75.1631 102.482 75.0826C102.438 75.068 102.395 75.0508 102.348 75.037C102.076 74.9548 101.798 74.8905 101.517 74.8445C101.455 74.8342 101.394 74.8265 101.331 74.8179C101.035 74.7748 100.736 74.7521 100.437 74.75C100.201 74.7505 99.9639 74.7631 99.7285 74.7878C99.648 74.7964 99.5693 74.8136 99.4897 74.8248C99.3383 74.8463 99.1869 74.8669 99.0382 74.8987C98.9437 74.9184 98.8518 74.9477 98.7582 74.9717C98.6287 75.0052 98.4957 75.037 98.3705 75.0791C98.2725 75.1109 98.1772 75.1505 98.0809 75.1866C97.9628 75.2313 97.8447 75.2725 97.7309 75.3258C97.6338 75.3696 97.5402 75.4195 97.4457 75.4667C97.3363 75.5217 97.2269 75.5767 97.121 75.6386C97.0152 75.7005 96.9373 75.7529 96.8463 75.8105C96.7553 75.868 96.645 75.9411 96.547 76.0124C96.449 76.0838 96.372 76.1448 96.2845 76.2135C96.197 76.2823 96.0982 76.3656 96.0089 76.4464C95.9197 76.5272 95.8497 76.5968 95.7718 76.675C95.7228 76.724 95.6694 76.7678 95.6222 76.8185C95.2719 76.4486 94.8787 76.1204 94.4505 75.8405C94.4234 75.8225 94.3954 75.8062 94.3683 75.789C94.2003 75.6816 94.0288 75.5827 93.852 75.4916C93.7899 75.459 93.726 75.428 93.6622 75.3971C93.516 75.3284 93.3682 75.2639 93.2168 75.2055C93.1337 75.1728 93.0505 75.141 92.9665 75.1118C92.8248 75.0637 92.6822 75.0259 92.5369 74.9846C92.4494 74.9597 92.3558 74.933 92.263 74.9124C92.1082 74.8789 91.9515 74.854 91.794 74.8308C91.7109 74.8188 91.6287 74.8016 91.5455 74.7921C91.0443 74.734 90.5377 74.736 90.037 74.7981C89.9548 74.8076 89.8751 74.823 89.7938 74.8359C89.6188 74.8617 89.4499 74.8927 89.281 74.9322C89.1935 74.9537 89.1008 74.9777 89.0115 75.0027C88.8514 75.0473 88.6948 75.098 88.5399 75.1548C88.4524 75.1848 88.3701 75.2149 88.2861 75.2484C88.1111 75.3189 87.9493 75.398 87.7857 75.4822C87.7262 75.5123 87.6649 75.538 87.6107 75.5681C87.3938 75.6875 87.184 75.8189 86.9824 75.9617C86.929 75.9995 86.88 76.0434 86.8275 76.0829C86.6797 76.1946 86.5353 76.3106 86.397 76.4352C86.3288 76.4963 86.2649 76.5607 86.2002 76.6243C86.1354 76.6879 86.0637 76.7489 86.0007 76.8159C85.9377 76.7489 85.8677 76.6888 85.8012 76.6243C85.7347 76.5598 85.6725 76.4963 85.6043 76.4352C85.466 76.3106 85.3208 76.1938 85.1729 76.082C85.1213 76.0434 85.0723 75.9961 85.0198 75.9626C84.818 75.8193 84.6079 75.6876 84.3907 75.5681C84.3329 75.5355 84.2717 75.5097 84.2157 75.4822C84.052 75.3963 83.8858 75.3189 83.7152 75.2484C83.6277 75.2149 83.5463 75.1848 83.4614 75.1548C83.3065 75.098 83.1499 75.0473 82.9898 75.0027C82.9023 74.9777 82.8148 74.9537 82.7203 74.9322C82.5514 74.8927 82.3799 74.8617 82.2075 74.8351C82.1262 74.823 82.0465 74.8076 81.9643 74.7981C81.4636 74.736 80.957 74.734 80.4558 74.7921C80.3683 74.8016 80.2904 74.8188 80.2073 74.8308C80.0498 74.854 79.8932 74.878 79.7383 74.9124C79.6455 74.933 79.5554 74.9597 79.4635 74.9846C79.3192 75.0233 79.1757 75.0637 79.0348 75.1118C78.9473 75.141 78.8677 75.1728 78.7845 75.2055C78.6332 75.2639 78.4853 75.3284 78.3392 75.3971C78.2753 75.428 78.2114 75.459 78.1493 75.4916C77.9743 75.5827 77.8025 75.6818 77.6339 75.789C77.6059 75.8062 77.5779 75.8225 77.5464 75.8405C77.1182 76.1204 76.725 76.4486 76.3748 76.8185C76.3275 76.7678 76.2742 76.724 76.2252 76.675C76.1473 76.5968 76.0694 76.5203 75.988 76.4464C75.9067 76.3725 75.806 76.2891 75.7124 76.2135C75.6188 76.1379 75.5427 76.0769 75.4543 76.0124C75.3659 75.948 75.2557 75.8758 75.1542 75.8105C75.0527 75.7452 74.9739 75.6919 74.8803 75.6386C74.7867 75.5853 74.665 75.5226 74.5557 75.4667C74.4612 75.4195 74.3675 75.3696 74.2704 75.3258C74.1549 75.2751 74.0368 75.2313 73.9204 75.1866C73.8242 75.1505 73.7288 75.1109 73.6308 75.0791C73.5039 75.037 73.3727 75.0052 73.2423 74.9717C73.1487 74.9468 73.0577 74.9184 72.9632 74.8987C72.8144 74.8669 72.663 74.8463 72.5117 74.8248C72.4312 74.8136 72.3533 74.7964 72.2728 74.7878C72.0368 74.763 71.7996 74.7504 71.5623 74.75C71.2632 74.7521 70.9647 74.7748 70.6689 74.8179C70.6059 74.8265 70.5447 74.8342 70.4825 74.8445C70.2014 74.8905 69.9237 74.9548 69.6513 75.037C69.6058 75.0508 69.5638 75.068 69.5165 75.0826C69.2708 75.1636 69.0301 75.2586 68.7955 75.367C68.7544 75.3859 68.7124 75.4023 68.6713 75.4229C68.421 75.546 68.179 75.6846 67.9468 75.838C67.896 75.8715 67.847 75.9059 67.7972 75.9402C67.563 76.1002 67.3397 76.2751 67.1287 76.4636L67.1208 76.4688C66.9149 76.657 66.7215 76.858 66.5415 77.0703C66.5022 77.1167 66.4628 77.1623 66.4243 77.2095C66.2508 77.4235 66.0913 77.6479 65.9465 77.8816C65.9203 77.9237 65.8984 77.9675 65.8739 78.0088C65.7459 78.2274 65.6311 78.4532 65.53 78.6851C65.5169 78.7152 65.4985 78.7418 65.4863 78.771C65.1661 78.1048 65 77.3773 64.9998 76.6406C64.9998 76.4127 64.9076 76.1941 64.7435 76.033C64.5794 75.8718 64.3568 75.7813 64.1248 75.7813C62.9135 75.7264 61.7736 75.203 60.9539 74.3255C60.1342 73.448 59.7013 72.2876 59.7498 71.0977C59.7304 70.1238 60.0207 69.1682 60.5803 68.364C61.1399 67.5597 61.9409 66.9469 62.8718 66.6109C63.0087 66.5673 63.1325 66.4913 63.2323 66.3895C63.3321 66.2877 63.4048 66.1633 63.444 66.0273C63.6734 65.101 64.2073 64.2748 64.9631 63.6767C65.7189 63.0785 66.6544 62.7419 67.6248 62.7188C68.446 62.7341 69.2458 62.9782 69.9312 63.4226C70.6167 63.867 71.1596 64.4934 71.4967 65.229C71.562 65.3617 71.661 65.4757 71.7842 65.5599C71.9073 65.6442 72.0505 65.696 72.1999 65.7102C72.3492 65.7245 72.4999 65.7007 72.6372 65.6413C72.7746 65.5818 72.894 65.4887 72.9842 65.3708C73.3717 64.8417 73.8805 64.4096 74.4696 64.1094C75.0586 63.8092 75.7112 63.6493 76.3748 63.6426C77.1847 63.6575 77.9741 63.895 78.6536 64.328C79.3332 64.761 79.8756 65.3723 80.2195 66.0927C80.296 66.2483 80.4194 66.3771 80.573 66.4615C80.7265 66.5459 80.9028 66.5818 81.0779 66.5645C81.2526 66.5494 81.4186 66.4833 81.5545 66.3745C81.6904 66.2657 81.7899 66.1193 81.84 65.9543C82.0608 65.0336 82.5917 64.213 83.3467 63.6258C84.1018 63.0386 85.0367 62.719 85.9998 62.719C86.9629 62.719 87.8978 63.0386 88.6528 63.6258C89.4079 64.213 89.9388 65.0336 90.1595 65.9543C90.2097 66.1193 90.3092 66.2657 90.4451 66.3745C90.581 66.4833 90.747 66.5494 90.9217 66.5645C91.0968 66.5823 91.2733 66.5466 91.4269 66.4621C91.5806 66.3777 91.7039 66.2486 91.78 66.0927C92.1239 65.3723 92.6664 64.761 93.3459 64.328C94.0254 63.895 94.8149 63.6575 95.6248 63.6426C96.2882 63.6494 96.9407 63.8094 97.5295 64.1096C98.1184 64.4098 98.6271 64.8418 99.0145 65.3708C99.1054 65.4887 99.2255 65.5817 99.3633 65.6412C99.5011 65.7006 99.6522 65.7244 99.802 65.7102C99.9509 65.6955 100.093 65.6435 100.216 65.5592C100.338 65.475 100.437 65.3613 100.502 65.229C100.839 64.4933 101.382 63.8667 102.068 63.4223C102.753 62.9779 103.553 62.7339 104.375 62.7188C105.345 62.7419 106.281 63.0785 107.036 63.6767C107.792 64.2748 108.326 65.101 108.556 66.0273C108.595 66.1633 108.667 66.2877 108.767 66.3895C108.867 66.4913 108.991 66.5673 109.128 66.6109C110.059 66.947 110.86 67.5599 111.42 68.3643C111.979 69.1687 112.269 70.1245 112.25 71.0985C112.298 72.2883 111.865 73.4485 111.045 74.3258C110.226 75.2031 109.086 75.7264 107.875 75.7813Z" fill="black"/>
<path d="M69.375 69.5938H67.625C67.3929 69.5938 67.1704 69.5032 67.0063 69.342C66.8422 69.1809 66.75 68.9623 66.75 68.7344C66.75 68.5065 66.8422 68.2879 67.0063 68.1267C67.1704 67.9655 67.3929 67.875 67.625 67.875H69.375C69.6071 67.875 69.8296 67.9655 69.9937 68.1267C70.1578 68.2879 70.25 68.5065 70.25 68.7344C70.25 68.9623 70.1578 69.1809 69.9937 69.342C69.8296 69.5032 69.6071 69.5938 69.375 69.5938Z" fill="#D8AE6C"/>
<path d="M86.875 69.5938H85.125C84.8929 69.5938 84.6704 69.5032 84.5063 69.342C84.3422 69.1809 84.25 68.9623 84.25 68.7344C84.25 68.5065 84.3422 68.2879 84.5063 68.1267C84.6704 67.9655 84.8929 67.875 85.125 67.875H86.875C87.1071 67.875 87.3296 67.9655 87.4937 68.1267C87.6578 68.2879 87.75 68.5065 87.75 68.7344C87.75 68.9623 87.6578 69.1809 87.4937 69.342C87.3296 69.5032 87.1071 69.5938 86.875 69.5938Z" fill="#D8AE6C"/>
<path d="M78.125 73.0312H76.375C76.1429 73.0312 75.9204 72.9407 75.7563 72.7795C75.5922 72.6184 75.5 72.3998 75.5 72.1719C75.5 71.944 75.5922 71.7254 75.7563 71.5642C75.9204 71.403 76.1429 71.3125 76.375 71.3125H78.125C78.3571 71.3125 78.5796 71.403 78.7437 71.5642C78.9078 71.7254 79 71.944 79 72.1719C79 72.3998 78.9078 72.6184 78.7437 72.7795C78.5796 72.9407 78.3571 73.0312 78.125 73.0312Z" fill="#D8AE6C"/>
<path d="M104.375 69.5938H102.625C102.393 69.5938 102.17 69.5032 102.006 69.342C101.842 69.1809 101.75 68.9623 101.75 68.7344C101.75 68.5065 101.842 68.2879 102.006 68.1267C102.17 67.9655 102.393 67.875 102.625 67.875H104.375C104.607 67.875 104.83 67.9655 104.994 68.1267C105.158 68.2879 105.25 68.5065 105.25 68.7344C105.25 68.9623 105.158 69.1809 104.994 69.342C104.83 69.5032 104.607 69.5938 104.375 69.5938Z" fill="#D8AE6C"/>
<path d="M95.625 73.0312H93.875C93.6429 73.0312 93.4204 72.9407 93.2563 72.7795C93.0922 72.6184 93 72.3998 93 72.1719C93 71.944 93.0922 71.7254 93.2563 71.5642C93.4204 71.403 93.6429 71.3125 93.875 71.3125H95.625C95.8571 71.3125 96.0796 71.403 96.2437 71.5642C96.4078 71.7254 96.5 71.944 96.5 72.1719C96.5 72.3998 96.4078 72.6184 96.2437 72.7795C96.0796 72.9407 95.8571 73.0312 95.625 73.0312Z" fill="#D8AE6C"/>
</g>
<defs>
<clipPath id="clip0_10_6">
<rect width="56" height="55" fill="white" transform="translate(58 61)"/>
</clipPath>
</defs>
</svg>
