<svg width="307" height="251" viewBox="0 0 307 251" fill="none" xmlns="http://www.w3.org/2000/svg">
<path d="M289.028 116.698L178.316 90.9969L288.669 97.3041C291.324 97.5007 293.929 95.5867 293.879 93.4761L292.286 60.7816C292.05 59.4677 291.723 58.552 290.79 57.9157C289.858 57.2794 288.412 56.5241 286.782 56.5655L80.5638 44.3752C76.8333 41.83 72.4053 39.9625 67.7923 38.8916C50.3655 34.846 34.0298 42.3882 30.8857 55.9316C28.2965 67.0849 35.3956 78.3883 47.5621 84.1513L44.6955 96.4997L22.9646 190.108C22.4097 192.498 24.09 194.567 27.1654 195.281L257.814 248.826C260.89 249.54 263.31 248.422 263.865 246.032L285.503 152.822L292.808 121.354C293.783 119.482 291.591 117.293 289.028 116.698ZM57.9559 88.2434C66.7618 89.8679 76.1225 89.1024 82.4501 85.1139L83.0552 84.8346C86.1728 83.0395 88.2653 81.0065 89.8452 78.8545L94.4582 79.9254L106.942 107.592L56.1989 95.8117L57.9559 88.2434ZM141.508 56.4242L125.523 78.7411L108.096 74.6955L122.316 55.3273L141.508 56.4242ZM173.043 57.8679L156.268 81.2607L136.564 80.0448L153.339 56.6519L173.043 57.8679ZM204.486 59.7098L187.711 83.1027L168.007 81.8868L184.781 58.4939L204.486 59.7098ZM235.928 61.5518L219.154 84.9447L199.45 83.7288L216.224 60.3359L235.928 61.5518ZM267.884 63.5128L251.109 86.9057L231.405 85.6898L248.179 62.2969L267.884 63.5128ZM96.8202 72.0777L93.2323 71.2448L93.3248 70.8465C94.7119 64.8715 93.4437 58.6999 89.7554 53.6457L109.46 54.8616L96.8202 72.0777ZM118.823 109.93L106.339 82.2638L124.279 86.4284C124.791 86.5473 124.699 86.9457 125.211 87.0647C125.724 87.1837 125.724 87.1837 126.237 87.3026L138.3 114.452L118.823 109.93ZM150.089 117.188L137.605 89.5221L156.57 93.9246L169.053 121.591L150.089 117.188ZM181.354 124.447L168.871 96.7803L187.835 101.183L200.319 128.849L181.354 124.447ZM212.108 131.586L199.624 103.92L218.589 108.322L231.072 135.988L212.108 131.586ZM243.373 138.844L230.89 111.178L249.854 115.58L262.338 143.247L243.373 138.844ZM276.689 146.578L274.639 146.102L262.156 118.436L282.145 123.077L276.689 146.578ZM283.157 88.4683L262.94 87.1334L279.715 63.7406L281.857 63.8182L283.157 88.4683ZM41.0443 58.7097C43.1712 49.548 54.0616 44.5198 65.8504 47.2565C69.4382 48.0895 72.8412 49.719 75.6391 51.628C81.655 55.9631 84.4608 62.4917 83.0737 68.4667C82.7963 69.6617 82.5189 70.8567 81.7289 71.9327C80.6615 74.2037 78.569 76.2367 76.0565 77.7524L75.4514 78.0318C69.8212 81.3426 61.5781 81.9477 54.6798 79.0869C45.3111 75.2328 39.1949 66.6763 41.0443 58.7097ZM34.5604 189.022L54.4419 103.38L274.84 154.545L254.958 240.187L34.5604 189.022Z" fill="white"/>
<path d="M69.9369 117.633C71.2824 118.01 72.3306 118.285 73.0815 118.46L74.2078 118.721C74.5325 118.796 74.9407 118.88 75.4325 118.973C75.843 119.047 76.3629 119.157 76.992 119.303C77.6258 119.429 78.3837 119.573 79.2658 119.735C78.794 119.925 78.4057 120.123 78.1009 120.331C77.7961 120.538 77.5492 120.726 77.36 120.896C77.1411 121.102 76.9777 121.3 76.8697 121.488C76.6051 121.983 76.377 122.689 76.1853 123.607C76.0186 124.51 75.8838 125.505 75.7809 126.593C75.6826 127.661 75.6102 128.756 75.5634 129.879C75.5167 131.002 75.4935 132.023 75.4938 132.943C75.5145 133.867 75.54 134.632 75.5704 135.238C75.6259 135.829 75.6942 136.133 75.7754 136.152C75.8565 136.171 76.0771 135.912 76.4369 135.375C76.8171 134.843 77.263 134.166 77.7747 133.344C78.2911 132.501 78.8341 131.59 79.4038 130.61C79.9782 129.61 80.508 128.664 80.9932 127.771C81.5035 126.863 81.93 126.085 82.2729 125.438C82.6204 124.77 82.813 124.355 82.8507 124.192C82.8822 123.964 82.8654 123.714 82.8001 123.443C82.7505 123.196 82.6267 122.9 82.4289 122.554C82.256 122.193 81.9911 121.768 81.6342 121.279C82.268 121.405 82.8105 121.509 83.2616 121.593C83.7331 121.681 84.1312 121.763 84.4559 121.838L85.3995 122.057L90.27 123.188C89.6826 123.415 89.1685 123.648 88.7279 123.888C88.3075 124.133 87.9527 124.371 87.6635 124.604C87.3244 124.867 87.0305 125.12 86.7819 125.361C86.48 125.741 85.9308 126.586 85.1342 127.898C84.79 128.46 84.3846 129.147 83.9182 129.958C83.4519 130.769 82.8947 131.741 82.2467 132.874C81.5988 134.007 80.8655 135.323 80.0468 136.823C79.2329 138.302 78.3063 139.99 77.2669 141.888L72.9085 141.454C72.7686 139.753 72.6567 138.208 72.5726 136.82C72.5135 135.416 72.4503 134.215 72.3829 133.215C72.3126 132.044 72.2671 130.996 72.2465 130.072C72.187 128.946 72.1706 127.819 72.197 126.692C72.2485 125.549 72.2943 124.522 72.3346 123.612C72.3998 122.686 72.4398 121.914 72.4547 121.298C72.4696 120.681 72.4178 120.305 72.2993 120.171C72.201 120.041 72.049 119.867 71.8432 119.648C71.6529 119.454 71.4112 119.205 71.1181 118.902C70.8093 118.574 70.4156 118.151 69.9369 117.633ZM86.347 130.137L91.9339 131.498C91.3218 132.661 90.8333 133.659 90.4684 134.494C90.1237 135.334 89.8628 136.043 89.6856 136.622C89.449 137.273 89.2968 137.837 89.229 138.313C89.1909 138.753 89.1864 139.233 89.2154 139.753C89.2429 140.187 89.3172 140.697 89.4383 141.281C89.5593 141.865 89.7615 142.468 90.0449 143.09C89.8202 142.952 89.5705 142.83 89.2958 142.723C89.0211 142.617 88.7644 142.525 88.5256 142.448C88.2462 142.362 87.9621 142.296 87.6732 142.251C87.3844 142.205 87.0628 142.162 86.7084 142.123C86.4149 142.097 86.0581 142.068 85.6381 142.035C85.2181 142.001 84.7731 141.984 84.303 141.981C84.8195 141.139 85.2366 140.402 85.5544 139.77C85.8925 139.142 86.154 138.615 86.3388 138.187C86.5424 137.678 86.6921 137.264 86.7878 136.944C86.882 136.538 86.988 136.082 87.1058 135.574C87.2283 135.047 87.346 134.539 87.4591 134.052C87.5722 133.565 87.661 133.137 87.7255 132.767C87.7947 132.376 87.8106 132.123 87.7733 132.008L87.5396 131.633C87.4414 131.503 87.2917 131.319 87.0906 131.079C86.9145 130.825 86.6666 130.51 86.347 130.137ZM89.5965 125.951C90.0745 125.826 90.5148 125.864 90.9174 126.065C91.3403 126.27 91.6406 126.543 91.8181 126.884C91.9957 127.224 91.9991 127.578 91.8284 127.945C91.6781 128.316 91.2662 128.616 90.5929 128.845C89.9243 129.053 89.3785 129.055 88.9556 128.85C88.5327 128.645 88.2676 128.358 88.1604 127.991C88.0531 127.624 88.1098 127.242 88.3305 126.844C88.5559 126.426 88.9779 126.128 89.5965 125.951ZM111.005 125.627C111.386 125.737 111.8 125.844 112.246 125.948C112.632 126.037 113.066 126.149 113.548 126.282C114.056 126.4 114.588 126.502 115.145 126.588C114.606 126.699 114.105 126.924 113.641 127.266C113.177 127.607 112.783 127.965 112.461 128.339C112.059 128.781 111.703 129.254 111.394 129.76C111.217 130.061 111.001 130.62 110.747 131.438C110.498 132.236 110.226 133.178 109.931 134.264C109.656 135.355 109.377 136.51 109.095 137.727C108.812 138.945 108.551 140.114 108.312 141.235C108.078 142.336 107.883 143.317 107.725 144.179C107.568 145.04 107.48 145.651 107.461 146.01C107.448 146.435 107.46 146.844 107.497 147.237C107.523 147.586 107.577 147.951 107.659 148.334C107.746 148.696 107.888 149.007 108.084 149.267L104.654 149.946C104.544 149.685 104.466 149.421 104.421 149.154C104.371 148.907 104.337 148.686 104.319 148.489C104.289 148.247 104.286 148.032 104.308 147.845C104.324 147.592 104.344 147.318 104.37 147.025C104.4 146.711 104.415 146.415 104.416 146.137C104.441 145.844 104.465 145.603 104.487 145.416C104.509 145.229 104.535 145.117 104.564 145.081C104.594 145.045 104.43 145.2 104.072 145.544C103.719 145.868 103.217 146.233 102.567 146.638C101.942 147.028 101.197 147.379 100.333 147.692C99.474 147.984 98.5635 148.083 97.6017 147.988C96.6197 147.888 95.7793 147.501 95.0806 146.825C94.4022 146.155 93.8802 145.317 93.5146 144.312C93.1536 143.288 92.9552 142.161 92.9194 140.934C92.9085 139.691 93.0748 138.468 93.4184 137.264C93.6474 136.462 93.9973 135.784 94.468 135.23C94.9435 134.656 95.4789 134.192 96.0743 133.839C96.6947 133.469 97.3369 133.191 98.0008 133.003C98.6897 132.799 99.3442 132.651 99.9642 132.56C100.605 132.474 101.19 132.438 101.721 132.455C102.252 132.471 102.674 132.494 102.988 132.524C103.358 132.589 103.76 132.746 104.194 132.997C104.571 133.213 104.991 133.524 105.453 133.931C105.935 134.342 106.445 134.909 106.982 135.633C107.332 133.575 107.597 131.926 107.778 130.685C107.964 129.423 108.082 128.456 108.131 127.783C108.209 126.989 108.24 126.44 108.224 126.137C108.17 125.91 108.085 125.677 107.97 125.436C107.866 125.241 107.721 125.036 107.535 124.822C107.375 124.592 107.164 124.393 106.904 124.226C107.408 124.45 107.899 124.639 108.376 124.792C108.854 124.946 109.291 125.09 109.687 125.225C110.145 125.374 110.584 125.508 111.005 125.627ZM100.729 135.208C100.31 135.26 99.9394 135.431 99.6158 135.719C99.3124 136.013 99.0332 136.386 98.7781 136.84C98.5277 137.274 98.3084 137.758 98.1203 138.292C97.9573 138.81 97.8067 139.32 97.6686 139.823C97.5556 140.31 97.4519 140.756 97.3577 141.162C97.2635 141.568 97.1928 141.873 97.1457 142.076C97.1174 142.197 97.0859 142.425 97.0511 142.759C97.0413 143.078 97.0877 143.431 97.1903 143.818C97.2975 144.185 97.4829 144.539 97.7463 144.878C98.0301 145.222 98.4561 145.46 99.0243 145.591C99.5005 145.659 100.035 145.612 100.629 145.451C101.152 145.315 101.769 145.052 102.48 144.661C103.216 144.255 104.047 143.624 104.973 142.77C105.083 142.111 105.177 141.566 105.256 141.135C105.355 140.709 105.425 140.362 105.466 140.093C105.516 139.784 105.563 139.538 105.605 139.356L105.711 138.899C105.739 138.777 105.77 138.645 105.803 138.503C105.836 138.361 105.877 138.232 105.925 138.115C105.451 137.577 105.024 137.114 104.643 136.726C104.288 136.323 103.913 136.001 103.52 135.76C103.152 135.503 102.742 135.333 102.291 135.25C101.865 135.151 101.344 135.137 100.729 135.208ZM118.145 146.694C118.714 146.826 119.255 146.887 119.771 146.879C120.2 146.871 120.623 146.799 121.04 146.66C121.483 146.506 121.819 146.21 122.049 145.771C122.436 145.947 122.764 146.098 123.034 146.225C123.309 146.331 123.543 146.428 123.737 146.516C123.946 146.629 124.129 146.714 124.287 146.772C124.44 146.85 124.623 146.936 124.837 147.028C125.03 147.116 125.262 147.223 125.532 147.35C125.827 147.461 126.168 147.605 126.555 147.78C126.26 147.669 125.938 147.626 125.59 147.652C125.262 147.683 124.942 147.726 124.63 147.782C124.272 147.849 123.928 147.951 123.596 148.088C123.385 148.167 123.13 148.3 122.83 148.487C122.55 148.679 122.171 148.837 121.693 148.961C121.215 149.085 120.602 149.146 119.854 149.144C119.131 149.126 118.227 148.969 117.14 148.674C115.831 148.327 114.779 147.837 113.985 147.204C113.195 146.55 112.6 145.845 112.198 145.089C111.801 144.312 111.568 143.52 111.498 142.713C111.429 141.905 111.46 141.175 111.59 140.52C111.721 139.866 112.071 139.231 112.642 138.615C113.213 137.999 113.932 137.482 114.799 137.063C115.687 136.649 116.7 136.381 117.84 136.261C118.985 136.12 120.187 136.196 121.445 136.488C122.175 136.658 122.824 136.905 123.39 137.229C123.982 137.537 124.498 137.892 124.94 138.294C125.401 138.701 125.782 139.131 126.083 139.586C126.389 140.021 126.631 140.451 126.81 140.878C126.984 141.324 127.113 141.782 127.197 142.251C127.275 142.654 127.31 143.1 127.303 143.591C127.296 144.081 127.216 144.565 127.062 145.043C125.51 144.725 124.255 144.466 123.297 144.265C122.359 144.068 121.626 143.909 121.098 143.786L119.728 143.468L118.693 143.228C118.328 143.143 117.849 143.043 117.255 142.926C116.662 142.81 115.935 142.673 115.073 142.516C114.986 143.351 115.094 144.039 115.396 144.58C115.723 145.105 116.094 145.533 116.509 145.865C116.98 146.231 117.526 146.507 118.145 146.694ZM116.678 140.579C117.318 140.77 117.848 140.925 118.27 141.044C118.712 141.168 119.072 141.274 119.352 141.36C119.651 141.451 119.892 141.517 120.075 141.56L120.836 141.736C121.343 141.854 122.294 142.043 123.688 142.302C123.835 141.395 123.8 140.671 123.583 140.129C123.387 139.591 123.143 139.171 122.849 138.867C122.5 138.53 122.087 138.284 121.609 138.13C120.285 137.844 119.237 137.89 118.465 138.267C117.714 138.648 117.118 139.419 116.678 140.579ZM137.646 142.014C138.174 142.136 138.698 142.365 139.219 142.7C139.745 143.014 140.237 143.385 140.694 143.812C141.155 144.219 141.559 144.644 141.905 145.088C142.276 145.516 142.569 145.915 142.782 146.286C143.162 146.952 143.335 147.772 143.301 148.748C143.292 149.709 143.114 150.662 142.766 151.607C142.422 152.533 141.929 153.37 141.284 154.119C140.64 154.867 139.875 155.353 138.989 155.575C138.355 155.727 137.745 155.821 137.16 155.856C136.574 155.891 136.018 155.89 135.492 155.854C134.966 155.817 134.479 155.747 134.033 155.644C133.587 155.54 133.203 155.44 132.883 155.345C132.284 155.163 131.694 154.801 131.114 154.26C130.554 153.724 130.046 153.103 129.589 152.398C129.153 151.698 128.81 150.966 128.559 150.202C128.314 149.418 128.221 148.712 128.281 148.084C128.352 147.224 128.535 146.347 128.828 145.452C129.121 144.558 129.611 143.784 130.297 143.131C131.004 142.482 131.944 142.027 133.117 141.764C134.31 141.507 135.82 141.59 137.646 142.014ZM133.9 153.591C134.114 153.684 134.43 153.704 134.848 153.651C135.272 153.578 135.706 153.412 136.151 153.152C136.617 152.896 137.053 152.538 137.46 152.076C137.891 151.599 138.227 150.982 138.467 150.225C138.702 149.488 138.862 148.798 138.948 148.155C139.053 147.516 139.089 146.947 139.055 146.447C139.026 145.927 138.956 145.494 138.844 145.147C138.732 144.8 138.588 144.542 138.414 144.373C138.111 144.111 137.728 143.872 137.265 143.658C136.806 143.423 136.385 143.346 136.002 143.429C135.821 143.472 135.578 143.598 135.274 143.805C134.969 144.012 134.648 144.29 134.31 144.64C133.977 144.969 133.65 145.363 133.329 145.824C133.029 146.289 132.774 146.786 132.566 147.315C132.358 147.844 132.201 148.428 132.095 149.066C132.01 149.709 132.003 150.339 132.074 150.954C132.15 151.549 132.323 152.092 132.594 152.583C132.89 153.058 133.325 153.394 133.9 153.591Z" fill="white"/>
<path d="M162.27 176.941C162.98 177.106 163.591 177.376 164.103 177.752C164.64 178.112 165.119 178.49 165.54 178.887C165.981 179.289 166.397 179.664 166.787 180.011C167.181 180.338 167.612 180.556 168.079 180.664C168.449 180.728 168.877 180.774 169.362 180.801C169.787 180.814 170.282 180.801 170.847 180.761C171.438 180.706 172.108 180.583 172.857 180.394C172.037 180.888 171.362 181.308 170.832 181.656C170.327 181.988 169.93 182.27 169.641 182.502C169.302 182.766 169.05 182.975 168.886 183.129C168.712 183.324 168.452 183.616 168.105 184.006C167.787 184.36 167.356 184.838 166.81 185.438C166.269 186.018 165.577 186.788 164.734 187.747C165.059 186.347 165.169 185.228 165.064 184.391C164.979 183.559 164.822 182.902 164.591 182.421C164.314 181.864 163.946 181.469 163.487 181.234C163.055 181.07 162.589 181.047 162.091 181.167C161.598 181.266 161.081 181.467 160.54 181.769C160.019 182.076 159.49 182.466 158.953 182.94C158.44 183.399 157.95 183.895 157.484 184.428C157.039 184.966 156.641 185.526 156.292 186.108C155.948 186.67 155.684 187.208 155.501 187.721C155.332 188.174 155.194 188.719 155.089 189.358C154.988 189.976 154.933 190.626 154.925 191.309C154.921 191.971 154.96 192.632 155.041 193.293C155.123 193.954 155.27 194.565 155.482 195.127C155.718 195.674 156.014 196.149 156.37 196.553C156.73 196.936 157.187 197.181 157.739 197.288C158.357 197.388 158.999 197.345 159.662 197.157C160.231 197.011 160.843 196.725 161.498 196.299C162.157 195.854 162.8 195.158 163.426 194.213L167.74 196.08C166.074 197.362 164.53 198.255 163.108 198.759C161.707 199.267 160.481 199.571 159.432 199.67C158.211 199.771 157.095 199.694 156.085 199.438C154.84 198.999 153.732 198.336 152.762 197.447C151.792 196.559 151.004 195.574 150.4 194.493C149.82 193.396 149.432 192.258 149.235 191.079C149.039 189.9 149.091 188.8 149.392 187.779C149.593 187.098 149.921 186.33 150.376 185.473C150.837 184.596 151.383 183.717 152.015 182.838C152.667 181.962 153.396 181.126 154.201 180.33C155.006 179.533 155.849 178.851 156.729 178.286C157.613 177.7 158.524 177.28 159.459 177.027C160.42 176.758 161.357 176.729 162.27 176.941ZM167.261 202.706C167.534 202.449 167.762 202.202 167.945 201.967C168.128 201.731 168.282 201.532 168.405 201.368C168.538 201.163 168.646 200.975 168.729 200.801C168.778 200.684 168.87 200.332 169.007 199.743C169.144 199.155 169.295 198.409 169.462 197.507C169.649 196.609 169.852 195.598 170.07 194.472C170.309 193.351 170.532 192.205 170.74 191.034C170.968 189.868 171.179 188.73 171.372 187.62C171.586 186.515 171.774 185.521 171.936 184.639C172.103 183.737 172.232 182.997 172.323 182.419C172.414 181.842 172.459 181.51 172.458 181.424C172.446 181.293 172.403 181.154 172.33 181.009C172.183 180.718 171.892 180.405 171.457 180.069C172.553 180.045 173.394 180.016 173.98 179.981C174.323 179.975 174.626 179.96 174.889 179.935C175.131 179.906 175.373 179.876 175.615 179.847C175.816 179.808 176.041 179.764 176.287 179.714C176.539 179.644 176.772 179.56 176.988 179.46C176.75 180.025 176.537 180.574 176.349 181.108C176.161 181.642 175.992 182.137 175.843 182.595C175.68 183.113 175.542 183.616 175.429 184.103C175.097 185.073 174.784 186.145 174.49 187.317C174.222 188.474 173.959 189.654 173.701 190.856C173.443 192.058 173.213 193.234 173.01 194.384C172.807 195.535 172.628 196.584 172.472 197.532C172.341 198.464 172.231 199.262 172.141 199.925C172.076 200.573 172.043 200.993 172.041 201.185C172.051 201.508 172.064 201.822 172.079 202.125C172.104 202.387 172.136 202.662 172.177 202.949C172.212 203.257 172.282 203.508 172.387 203.704L169.434 203.018C169.17 202.957 168.914 202.908 168.666 202.872C168.438 202.84 168.2 202.807 167.951 202.77C167.703 202.734 167.473 202.713 167.261 202.706ZM177.041 189.321C177.545 189.545 177.983 189.732 178.354 189.883C178.75 190.017 179.086 190.138 179.361 190.245C179.676 190.361 179.953 190.457 180.192 190.534C180.431 190.611 180.71 190.697 181.03 190.793C181.573 190.94 182.344 191.119 183.344 191.33C182.764 191.152 182.262 191.196 181.837 191.461C181.437 191.71 181.107 192.029 180.845 192.418C180.525 192.878 180.276 193.441 180.101 194.106C179.853 194.989 179.684 195.806 179.596 196.555C179.533 197.289 179.564 197.938 179.69 198.502C179.84 199.05 180.101 199.495 180.47 199.838C180.844 200.16 181.378 200.348 182.072 200.402C182.765 200.456 183.326 200.34 183.756 200.055C184.211 199.754 184.583 199.349 184.873 198.839C185.167 198.308 185.407 197.69 185.592 196.984C185.797 196.284 186 195.55 186.199 194.784C186.378 194.012 186.495 193.462 186.55 193.133C186.63 192.788 186.672 192.562 186.675 192.456C186.678 192.35 186.657 192.302 186.612 192.313C186.572 192.304 186.533 192.241 186.495 192.125C186.473 192.035 186.431 191.94 186.369 191.839C186.327 191.744 186.267 191.634 186.189 191.509C186.116 191.364 186.033 191.216 185.939 191.066C186.462 191.209 186.924 191.337 187.325 191.452C187.751 191.551 188.104 191.643 188.384 191.73C188.704 191.825 188.983 191.912 189.222 191.988C189.44 192.061 189.728 192.159 190.083 192.285C190.378 192.396 190.765 192.528 191.242 192.682C191.72 192.836 192.284 193.031 192.935 193.268C192.445 193.261 192.034 193.326 191.703 193.463C191.372 193.6 191.101 193.751 190.892 193.916C190.657 194.097 190.469 194.31 190.326 194.555C190.185 194.886 190.063 195.413 189.959 196.138C189.853 196.776 189.755 197.662 189.663 198.796C189.571 199.929 189.49 201.429 189.42 203.295L186.683 204.167L187.136 200.006C186.317 200.863 185.509 201.489 184.712 201.881C183.94 202.258 183.241 202.502 182.617 202.614C181.881 202.742 181.194 202.754 180.555 202.649C179.723 202.455 179.015 202.237 178.43 201.995C177.869 201.736 177.397 201.466 177.013 201.185C176.63 200.903 176.332 200.62 176.12 200.336C175.933 200.036 175.807 199.75 175.742 199.478C175.575 198.905 175.574 198.22 175.737 197.424C175.905 196.607 176.122 195.813 176.387 195.04C176.656 194.247 176.92 193.528 177.177 192.881C177.434 192.235 177.57 191.786 177.586 191.533C177.588 191.341 177.574 191.124 177.545 190.882C177.506 190.68 177.451 190.454 177.382 190.202C177.316 189.93 177.203 189.637 177.041 189.321ZM195.158 185.763C195.597 185.993 196.002 186.184 196.373 186.334C196.77 186.469 197.108 186.579 197.387 186.666C197.727 186.766 198.039 186.849 198.324 186.915C198.608 186.981 198.968 187.043 199.403 187.102C200.168 187.215 201.269 187.31 202.705 187.387C202.444 187.498 202.194 187.611 201.953 187.726C201.737 187.825 201.542 187.93 201.367 188.039L200.804 188.389C200.456 188.693 200.048 189.251 199.582 190.063C199.184 190.762 198.696 191.76 198.116 193.059C197.557 194.362 196.915 196.116 196.189 198.322C197.409 197.578 198.513 197.065 199.498 196.78C200.509 196.48 201.375 196.296 202.097 196.228C202.945 196.169 203.696 196.204 204.35 196.334C205.168 196.588 205.848 196.928 206.391 197.354C206.959 197.764 207.411 198.211 207.748 198.695C208.109 199.164 208.375 199.632 208.544 200.099C208.739 200.551 208.872 200.945 208.943 201.283C208.978 201.504 208.951 201.894 208.865 202.451C208.803 202.993 208.672 203.604 208.471 204.285C208.27 204.965 207.989 205.67 207.627 206.399C207.291 207.112 206.854 207.749 206.318 208.308C205.807 208.853 205.197 209.267 204.489 209.552C203.802 209.842 203.007 209.903 202.105 209.736C201.07 209.496 200.093 209.141 199.176 208.672C198.391 208.275 197.591 207.715 196.775 206.991C195.984 206.252 195.377 205.319 194.954 204.195C194.897 204.438 194.841 204.682 194.784 204.925C194.732 205.148 194.698 205.344 194.68 205.511C194.649 205.739 194.624 205.936 194.607 206.103C194.585 206.29 194.591 206.495 194.625 206.717C194.648 206.893 194.692 207.117 194.758 207.389C194.848 207.645 194.979 207.911 195.15 208.186C194.932 208.114 194.711 208.052 194.487 208C194.269 207.928 194.046 207.876 193.818 207.845C193.569 207.808 193.321 207.772 193.073 207.736C192.825 207.7 192.564 207.671 192.291 207.651C192.058 207.639 191.783 207.629 191.464 207.619C191.145 207.609 190.814 207.607 190.471 207.613C190.574 207.445 190.686 207.193 190.807 206.857C190.932 206.501 191.065 206.115 191.204 205.698C191.369 205.266 191.518 204.808 191.651 204.326C191.805 203.848 191.958 203.371 192.112 202.893C192.452 201.796 192.806 200.595 193.173 199.29C193.71 197.254 194.163 195.349 194.532 193.574C194.686 192.819 194.822 192.048 194.94 191.263C195.079 190.482 195.185 189.748 195.259 189.059C195.338 188.35 195.368 187.716 195.349 187.155C195.354 186.579 195.291 186.115 195.158 185.763ZM195.674 201.507C195.862 202.17 196.089 202.758 196.356 203.269C196.627 203.76 196.912 204.189 197.211 204.558C197.511 204.927 197.814 205.233 198.121 205.475C198.449 205.722 198.766 205.924 199.071 206.081C199.775 206.458 200.511 206.65 201.279 206.658C202.057 206.624 202.72 206.35 203.267 205.836C203.814 205.321 204.289 204.704 204.691 203.985C204.877 203.643 205.047 203.19 205.199 202.627C205.371 202.068 205.438 201.506 205.398 200.941C205.383 200.36 205.23 199.822 204.938 199.326C204.652 198.811 204.153 198.427 203.441 198.177C202.933 198.059 202.312 198.064 201.576 198.193C200.931 198.3 200.137 198.543 199.193 198.923C198.254 199.282 197.14 199.89 195.851 200.746L195.674 201.507Z" fill="white"/>
</svg>
